<svg width="684" height="501" viewBox="36 125 684 501" fill="none" xmlns="http://www.w3.org/2000/svg">
<path d="M317.345 216.072L89.9577 616.747H676.209L460.51 216.072H317.345Z" fill="#FFE18B"/>
<path d="M508.098 392.244C511.226 385.904 512.872 378.935 512.911 371.865C512.949 364.795 511.38 357.809 508.321 351.435C505.263 345.061 500.794 339.466 495.255 335.073C489.715 330.68 483.249 327.604 476.346 326.077C473.373 325.426 470.659 323.908 468.549 321.715V321.679C464.508 317.452 463.815 313.661 458.082 302.173C457.468 300.93 456.954 299.931 456.654 299.36L408.894 317.881L421.839 357.458C419.177 365.815 418.925 374.753 421.112 383.246C423.299 391.74 427.837 399.444 434.205 405.475C440.572 411.507 448.511 415.62 457.111 417.344C465.711 419.068 474.622 418.332 482.822 415.22C483.214 419.14 484.687 422.873 487.077 426.005C489.467 429.136 492.679 431.542 496.357 432.954C500.034 434.366 504.031 434.729 507.902 434.002C511.774 433.275 515.367 431.487 518.282 428.838C521.197 426.188 523.318 422.781 524.41 418.996C525.501 415.212 525.52 411.198 524.464 407.403C523.408 403.608 521.318 400.182 518.428 397.505C515.539 394.828 511.962 393.007 508.098 392.244Z" fill="#262626"/>
<path d="M367.575 416.341C380.446 416.341 390.88 405.907 390.88 393.036C390.88 380.165 380.446 369.731 367.575 369.731C354.704 369.731 344.27 380.165 344.27 393.036C344.27 405.907 354.704 416.341 367.575 416.341Z" fill="#262626"/>
<path d="M442.531 331.482C442.552 327.383 440.959 323.441 438.095 320.508C435.232 317.575 431.328 315.887 427.23 315.81L426.266 305.314C425.983 301.986 425.046 298.746 423.508 295.78C421.971 292.814 419.863 290.181 417.306 288.031C414.749 285.882 411.793 284.258 408.608 283.253C405.422 282.247 402.069 281.881 398.741 282.174L360.078 285.779C355.016 286.281 350.36 288.77 347.131 292.7C343.901 296.629 342.361 301.679 342.849 306.742L347.133 353.966C347.471 357.932 348.588 361.791 350.42 365.324C352.252 368.857 354.763 371.994 357.81 374.555C360.856 377.116 364.378 379.051 368.173 380.248C371.969 381.446 375.963 381.883 379.927 381.534L381.72 381.362L384.14 407.538L435.212 402.782L432.356 371.781H432.314L430.043 346.855C433.579 346.127 436.753 344.198 439.029 341.396C441.305 338.595 442.543 335.092 442.531 331.482Z" fill="white"/>
<path d="M426.851 338.951C425.653 338.951 424.481 338.595 423.484 337.929C422.487 337.263 421.71 336.317 421.251 335.209C420.792 334.101 420.672 332.882 420.906 331.707C421.14 330.531 421.717 329.451 422.565 328.603C423.413 327.755 424.493 327.178 425.669 326.944C426.845 326.71 428.064 326.83 429.171 327.289C430.279 327.748 431.226 328.524 431.892 329.521C432.558 330.518 432.913 331.69 432.913 332.889C432.911 334.496 432.272 336.037 431.136 337.173C429.999 338.31 428.459 338.949 426.851 338.951ZM426.851 329.669C426.217 329.669 425.598 329.857 425.07 330.209C424.543 330.562 424.132 331.062 423.89 331.648C423.647 332.234 423.583 332.878 423.707 333.5C423.831 334.122 424.136 334.693 424.585 335.142C425.033 335.59 425.604 335.895 426.226 336.019C426.848 336.143 427.493 336.079 428.078 335.837C428.664 335.594 429.165 335.183 429.517 334.656C429.869 334.129 430.057 333.509 430.057 332.875C430.052 332.028 429.712 331.217 429.111 330.619C428.511 330.022 427.699 329.685 426.851 329.683V329.669Z" fill="#262626"/>
<path d="M381.612 381.405L412.022 377.628C412.217 377.604 412.415 377.65 412.58 377.758C412.745 377.866 412.866 378.029 412.921 378.219C412.976 378.408 412.961 378.611 412.88 378.79C412.799 378.97 412.657 379.115 412.479 379.199L382.712 393.422L381.612 381.405Z" fill="#262626"/>
<path d="M422.382 335.524C422.047 335.53 421.72 335.419 421.459 335.208C421.198 334.998 421.019 334.703 420.954 334.374C420.626 332.754 420.729 331.077 421.253 329.509C421.776 327.942 422.702 326.539 423.938 325.442C425.132 324.435 426.55 323.728 428.073 323.382C429.596 323.035 431.18 323.058 432.692 323.45C433.056 323.552 433.365 323.794 433.551 324.123C433.738 324.452 433.785 324.842 433.684 325.206C433.583 325.571 433.341 325.88 433.011 326.066C432.682 326.252 432.293 326.3 431.928 326.199C430.878 325.935 429.78 325.921 428.723 326.159C427.666 326.397 426.68 326.881 425.845 327.57C424.985 328.334 424.341 329.311 423.977 330.402C423.614 331.494 423.544 332.662 423.774 333.789C423.812 333.973 423.812 334.163 423.776 334.347C423.74 334.532 423.668 334.708 423.564 334.864C423.46 335.021 423.325 335.155 423.169 335.26C423.013 335.364 422.838 335.437 422.653 335.474C422.564 335.497 422.473 335.514 422.382 335.524Z" fill="#262626"/>
<path d="M351.96 336.224C353.628 336.224 354.98 334.871 354.98 333.203C354.98 331.535 353.628 330.183 351.96 330.183C350.292 330.183 348.94 331.535 348.94 333.203C348.94 334.871 350.292 336.224 351.96 336.224Z" fill="#262626"/>
<path d="M384.183 332.489C385.851 332.489 387.203 331.137 387.203 329.469C387.203 327.801 385.851 326.449 384.183 326.449C382.515 326.449 381.163 327.801 381.163 329.469C381.163 331.137 382.515 332.489 384.183 332.489Z" fill="#262626"/>
<path d="M365.048 345.248C364.934 345.249 364.822 345.234 364.712 345.206C362.434 344.656 360.078 343.828 359.914 341.921C359.897 341.198 360.166 340.497 360.664 339.972C360.806 339.786 360.971 339.572 361.149 339.294C361.816 338.225 362.154 336.983 362.12 335.724L362.056 322.558C362.056 322.179 362.206 321.816 362.474 321.548C362.742 321.28 363.105 321.13 363.484 321.13C363.863 321.13 364.226 321.28 364.494 321.548C364.762 321.816 364.912 322.179 364.912 322.558L364.976 335.724C364.995 337.513 364.5 339.27 363.548 340.786C363.32 341.136 363.134 341.393 362.97 341.607C363.728 341.975 364.529 342.246 365.355 342.414C365.699 342.492 366.001 342.695 366.205 342.983C366.408 343.271 366.498 343.625 366.456 343.975C366.414 344.325 366.244 344.648 365.979 344.88C365.714 345.113 365.372 345.239 365.019 345.234L365.048 345.248Z" fill="#262626"/>
<path d="M369.96 357.822C368.03 357.795 366.129 357.346 364.391 356.508C364.054 356.335 363.799 356.035 363.683 355.674C363.568 355.313 363.6 354.921 363.773 354.584C363.946 354.247 364.246 353.993 364.607 353.877C364.968 353.761 365.36 353.793 365.697 353.966C365.74 353.966 369.032 355.637 372.002 354.68C372.812 354.386 373.555 353.93 374.183 353.339C374.811 352.749 375.313 352.037 375.658 351.246C375.735 351.068 375.848 350.907 375.989 350.774C376.13 350.64 376.298 350.537 376.48 350.471C376.663 350.405 376.857 350.376 377.051 350.387C377.245 350.399 377.435 350.449 377.608 350.536C377.782 350.624 377.936 350.745 378.061 350.894C378.186 351.043 378.28 351.215 378.336 351.401C378.392 351.587 378.409 351.783 378.387 351.976C378.365 352.169 378.303 352.356 378.207 352.524C377.699 353.659 376.964 354.678 376.047 355.517C375.129 356.356 374.049 356.997 372.873 357.401C371.93 357.694 370.947 357.836 369.96 357.822Z" fill="#262626"/>
<path d="M433.778 387.808L382.104 392.575L384.298 416.357L435.972 411.591L433.778 387.808Z" fill="#F9B800"/>
<path d="M360.814 287.593C365.355 287.236 369.689 290.97 372.238 294.29C376.522 299.888 378.328 306.714 381.627 312.854C388.174 324.992 404.118 326.513 415.734 321.458L459.503 305.129C458.417 301.637 452.805 281.895 432.735 272.342C423.448 267.998 413.09 266.479 402.947 267.972L366.111 269.9C361.824 270.093 357.652 271.351 353.973 273.563C347.312 277.668 340.029 286.415 342.607 304.886C343.194 300.345 345.328 296.145 348.649 292.992C351.971 289.84 356.276 287.928 360.842 287.579L360.814 287.593Z" fill="#262626"/>
<path d="M345.734 410.03C345.734 410.03 329.169 412.35 318.288 445.601C315.596 453.826 312.74 461.966 309.441 469.991L287.115 520.642L303.372 590.536L339.822 566.831L327.648 535.351C320.808 518.929 318.795 500.422 323.957 483.414L345.734 410.03Z" fill="white"/>
<path d="M488.541 545.133L336.837 562.904C330.033 546.032 328.726 544.483 321.929 527.625C316.368 513.848 315.646 498.591 319.88 484.35L341.107 413.2C341.573 411.62 342.525 410.226 343.827 409.216C345.129 408.207 346.715 407.632 348.361 407.573L482.194 402.483C485.457 461.066 485.314 486.549 488.541 545.133Z" fill="#F9B800"/>
<path d="M324.614 356.687C329.355 359.4 332.132 364.355 334.61 369.025C337.478 374.389 339.99 379.937 342.128 385.632C346.408 396.994 349.157 408.874 350.304 420.961C351.43 432.788 350.862 444.716 348.619 456.382C346.487 467.335 342.852 477.941 337.816 487.898C332.78 497.889 326.299 507.082 318.581 515.18C317.629 516.194 316.638 517.189 315.61 518.165C313.625 520.086 316.653 523.113 318.638 521.192C326.959 513.103 334.029 503.819 339.615 493.646C345.234 483.478 349.406 472.574 352.01 461.252C354.714 449.344 355.697 437.11 354.93 424.924C354.145 412.322 351.654 399.885 347.526 387.953C345.441 381.9 342.958 375.992 340.093 370.267C337.516 365.112 334.76 359.593 330.426 355.673C329.319 354.66 328.105 353.772 326.806 353.024C324.407 351.653 322.25 355.351 324.664 356.722L324.614 356.687Z" fill="white"/>
<path d="M432.185 604.766C431.651 588.548 434.798 572.42 441.389 557.592C447.932 542.688 457.704 529.424 469.999 518.758C476.425 513.238 483.793 507.726 492.261 506.048C496.015 505.286 499.908 505.597 503.492 506.948C504.962 507.552 506.366 508.303 507.683 509.19C509.01 510.099 510.242 511.14 511.361 512.296C516.294 517.294 519.6 524.005 521.956 530.574C525.098 539.371 527.168 548.646 528.839 557.82C532.384 577.293 533.285 597.155 531.517 616.868C531.298 619.339 531.036 621.804 530.731 624.265C530.589 625.415 531.817 626.407 532.873 626.407C533.437 626.395 533.975 626.165 534.374 625.766C534.773 625.367 535.003 624.829 535.015 624.265C537.505 603.788 537.159 583.065 533.987 562.683C532.491 552.8 530.293 543.037 527.411 533.466C525.148 526.026 522.021 518.693 517.222 512.524C512.532 506.477 506.027 502.086 498.266 501.414C488.848 500.608 479.952 505.648 472.69 511.111C459.123 521.385 448.069 534.611 440.368 549.788C432.586 564.933 428.311 581.633 427.858 598.654C427.808 600.689 427.858 602.717 427.901 604.752C427.994 607.501 432.278 607.515 432.185 604.752V604.766Z" fill="white"/>
<path d="M353.716 568.459C351.724 556.864 351.768 545.01 353.845 533.43C355.737 522.884 359.143 512.417 364.755 503.242C367.277 499.056 370.367 495.241 373.937 491.904C375.665 490.316 377.528 488.883 379.506 487.62C381.352 486.425 383.308 485.409 385.347 484.585C389.393 483.003 393.713 482.241 398.056 482.343C402.169 482.393 406.225 483.31 409.958 485.035C413.835 486.837 417.105 489.727 419.369 493.353C422.018 497.673 423.067 502.964 421.511 507.719C420.824 509.796 419.654 511.68 418.098 513.217C416.584 514.702 414.478 516.073 412.25 516.266C411.322 516.332 410.39 516.181 409.531 515.822C408.672 515.464 407.908 514.909 407.302 514.202C405.873 512.652 404.826 510.789 404.246 508.761C401.048 498.23 405.596 486.72 411.015 477.767C416.326 469.141 423.152 461.546 431.164 455.347C439.524 448.874 448.845 443.748 458.789 440.153C469.785 436.191 481.238 433.632 492.875 432.535C495.731 432.249 498.587 432.035 501.443 431.892C502.007 431.878 502.543 431.647 502.942 431.249C503.34 430.85 503.571 430.314 503.585 429.75C503.585 429.182 503.359 428.637 502.958 428.236C502.556 427.834 502.011 427.608 501.443 427.608C488.942 428.15 476.553 430.2 464.544 433.713C453.296 437.018 442.64 442.079 432.97 448.707C423.897 454.957 416.022 462.788 409.723 471.826C403.19 481.351 397.777 493.203 399.155 505.027C399.769 510.318 401.69 515.859 406.295 518.95C411.222 522.235 417.42 519.964 421.254 516.094C423.17 514.103 424.623 511.713 425.508 509.095C426.393 506.477 426.688 503.696 426.373 500.95C425.698 495.318 423.085 490.096 418.983 486.178C412.086 479.545 401.976 477.188 392.658 478.402C382.305 479.752 373.33 485.464 366.64 493.353C359.5 501.8 354.859 512.132 351.881 522.727C348.456 534.932 347.246 547.652 348.311 560.284C348.576 563.418 349.025 566.553 349.525 569.659C349.677 570.206 350.04 570.67 350.534 570.95C351.028 571.23 351.613 571.302 352.16 571.151C352.702 570.991 353.161 570.627 353.441 570.136C353.72 569.645 353.799 569.064 353.659 568.516L353.716 568.459Z" fill="white"/>
<path d="M567.517 538.535H567.595L556.735 513.26L533.887 460.031C530.598 452.377 527.309 444.718 524.02 437.055C519.536 426.623 515.88 415.335 506.427 408.223C494.289 399.105 475.939 397.228 463.43 406.645C452.784 414.656 449.864 429.208 450.056 441.874C450.314 456.233 455.054 470.198 461.295 482.979C467.721 496.145 473.004 509.854 478.909 523.27L488.548 545.161L343.97 562.069C339.174 562.625 334.492 563.919 330.09 565.903C324.021 568.65 317.847 571.601 311.569 574.757C307.89 576.603 304.296 578.465 300.788 580.34L309.863 616.754H516.094C556.642 616.754 583.432 575.171 567.517 538.535Z" fill="white"/>
<path d="M628.714 507.376H580.162C577.867 507.375 575.667 506.462 574.045 504.84C572.422 503.217 571.51 501.017 571.508 498.723V450.128C571.51 447.833 572.422 445.633 574.045 444.011C575.667 442.388 577.867 441.476 580.162 441.474H628.714C631.008 441.476 633.208 442.388 634.831 444.011C636.453 445.633 637.365 447.833 637.367 450.128V498.723C637.365 501.017 636.453 503.217 634.831 504.84C633.208 506.462 631.008 507.375 628.714 507.376ZM580.162 444.33C578.624 444.332 577.151 444.944 576.064 446.03C574.977 447.117 574.366 448.591 574.364 450.128V498.723C574.366 500.26 574.977 501.733 576.064 502.82C577.151 503.907 578.624 504.519 580.162 504.52H628.714C630.251 504.519 631.724 503.907 632.811 502.82C633.898 501.733 634.509 500.26 634.511 498.723V450.128C634.509 448.591 633.898 447.117 632.811 446.03C631.724 444.944 630.251 444.332 628.714 444.33H580.162Z" fill="#262626"/>
<path d="M593.592 469.106C592.118 469.106 590.676 468.669 589.451 467.85C588.225 467.031 587.269 465.867 586.705 464.505C586.141 463.142 585.993 461.644 586.281 460.198C586.569 458.752 587.279 457.424 588.321 456.381C589.363 455.339 590.692 454.629 592.138 454.341C593.584 454.053 595.082 454.201 596.444 454.765C597.807 455.329 598.971 456.285 599.79 457.511C600.609 458.736 601.046 460.178 601.046 461.652C601.044 463.628 600.258 465.523 598.861 466.921C597.463 468.318 595.568 469.104 593.592 469.106ZM593.592 457.054C592.682 457.054 591.793 457.323 591.037 457.829C590.281 458.334 589.692 459.052 589.344 459.892C588.996 460.732 588.905 461.657 589.082 462.549C589.259 463.441 589.697 464.26 590.34 464.903C590.984 465.546 591.803 465.984 592.695 466.162C593.587 466.339 594.511 466.248 595.351 465.9C596.192 465.552 596.91 464.963 597.415 464.207C597.92 463.45 598.19 462.561 598.19 461.652C598.182 460.437 597.695 459.274 596.834 458.416C595.972 457.559 594.807 457.077 593.592 457.075V457.054Z" fill="#262626"/>
<path d="M615.248 492.232C613.772 492.232 612.329 491.794 611.103 490.974C609.876 490.153 608.921 488.987 608.357 487.623C607.794 486.258 607.649 484.758 607.939 483.311C608.23 481.864 608.943 480.536 609.989 479.495C611.035 478.454 612.367 477.747 613.815 477.463C615.264 477.179 616.763 477.332 618.125 477.902C619.486 478.471 620.648 479.432 621.463 480.663C622.278 481.893 622.709 483.338 622.702 484.814C622.69 486.784 621.9 488.67 620.504 490.06C619.107 491.45 617.218 492.231 615.248 492.232ZM615.248 480.18C614.338 480.18 613.449 480.45 612.693 480.955C611.937 481.46 611.347 482.178 610.999 483.019C610.651 483.859 610.56 484.783 610.738 485.675C610.915 486.567 611.353 487.387 611.996 488.03C612.639 488.673 613.459 489.111 614.351 489.288C615.242 489.465 616.167 489.374 617.007 489.026C617.847 488.678 618.566 488.089 619.071 487.333C619.576 486.577 619.846 485.688 619.846 484.778C619.844 483.559 619.359 482.391 618.497 481.529C617.635 480.667 616.466 480.182 615.248 480.18Z" fill="#262626"/>
<path d="M590.179 496.659C589.927 496.657 589.68 496.585 589.465 496.452C589.142 496.257 588.909 495.941 588.818 495.574C588.727 495.208 588.785 494.82 588.979 494.496L614.048 452.877C614.145 452.716 614.273 452.576 614.424 452.464C614.575 452.353 614.747 452.272 614.929 452.227C615.111 452.182 615.301 452.174 615.487 452.202C615.672 452.23 615.851 452.294 616.011 452.391C616.172 452.488 616.312 452.616 616.424 452.767C616.535 452.918 616.616 453.09 616.661 453.272C616.706 453.455 616.715 453.644 616.687 453.83C616.658 454.016 616.594 454.194 616.497 454.355L591.428 495.967C591.299 496.182 591.116 496.359 590.897 496.48C590.677 496.602 590.43 496.664 590.179 496.659Z" fill="#262626"/>
<path d="M706.154 405.146H551.866C548.457 405.146 545.188 403.792 542.778 401.382C540.368 398.971 539.014 395.702 539.014 392.294V271.771C539.014 268.362 540.368 265.093 542.778 262.683C545.188 260.273 548.457 258.919 551.866 258.919H706.154C709.563 258.919 712.831 260.273 715.242 262.683C717.652 265.093 719.006 268.362 719.006 271.771V392.308C719.002 395.714 717.646 398.98 715.237 401.387C712.827 403.794 709.56 405.146 706.154 405.146ZM551.866 261.789C549.215 261.789 546.672 262.842 544.797 264.717C542.923 266.591 541.87 269.134 541.87 271.785V392.308C541.87 394.959 542.923 397.502 544.797 399.376C546.672 401.251 549.215 402.304 551.866 402.304H706.154C708.805 402.304 711.348 401.251 713.222 399.376C715.097 397.502 716.15 394.959 716.15 392.308V271.771C716.15 269.12 715.097 266.577 713.222 264.702C711.348 262.828 708.805 261.775 706.154 261.775L551.866 261.789Z" fill="#262626"/>
<path d="M621.759 287.157H566.638C563.074 287.157 560.184 290.047 560.184 293.612V377.7C560.184 381.264 563.074 384.154 566.638 384.154H621.759C625.324 384.154 628.214 381.264 628.214 377.7V293.612C628.214 290.047 625.324 287.157 621.759 287.157Z" fill="#F9B800"/>
<path d="M666.948 290.156H652.59C650.61 290.156 649.005 291.761 649.005 293.74V308.099C649.005 310.078 650.61 311.683 652.59 311.683H666.948C668.928 311.683 670.532 310.078 670.532 308.099V293.74C670.532 291.761 668.928 290.156 666.948 290.156Z" fill="#FFF1C9"/>
<path d="M698.457 290.156H684.099C682.119 290.156 680.514 291.761 680.514 293.74V308.099C680.514 310.078 682.119 311.683 684.099 311.683H698.457C700.437 311.683 702.041 310.078 702.041 308.099V293.74C702.041 291.761 700.437 290.156 698.457 290.156Z" fill="#FFF1C9"/>
<path d="M702.034 329.419H650.376C649.998 329.419 649.634 329.269 649.367 329.001C649.099 328.733 648.948 328.37 648.948 327.991C648.948 327.612 649.099 327.249 649.367 326.981C649.634 326.713 649.998 326.563 650.376 326.563H702.034C702.413 326.563 702.776 326.713 703.044 326.981C703.312 327.249 703.462 327.612 703.462 327.991C703.462 328.37 703.312 328.733 703.044 329.001C702.776 329.269 702.413 329.419 702.034 329.419Z" fill="#262626"/>
<path d="M702.034 343.949H650.376C649.998 343.949 649.634 343.798 649.367 343.531C649.099 343.263 648.948 342.9 648.948 342.521C648.948 342.142 649.099 341.779 649.367 341.511C649.634 341.243 649.998 341.093 650.376 341.093H702.034C702.413 341.093 702.776 341.243 703.044 341.511C703.312 341.779 703.462 342.142 703.462 342.521C703.462 342.9 703.312 343.263 703.044 343.531C702.776 343.798 702.413 343.949 702.034 343.949Z" fill="#262626"/>
<path d="M686.583 359.471H650.376C649.998 359.471 649.634 359.321 649.367 359.053C649.099 358.785 648.948 358.422 648.948 358.043C648.948 357.665 649.099 357.301 649.367 357.033C649.634 356.766 649.998 356.615 650.376 356.615H686.583C686.962 356.615 687.325 356.766 687.593 357.033C687.861 357.301 688.011 357.665 688.011 358.043C688.011 358.422 687.861 358.785 687.593 359.053C687.325 359.321 686.962 359.471 686.583 359.471Z" fill="#262626"/>
<path d="M602.46 315.353V318.923C602.459 320.713 601.765 322.432 600.522 323.72C599.28 325.007 597.586 325.763 595.798 325.828C595.377 325.828 594.97 325.828 594.563 325.828C592.726 325.77 590.984 324.999 589.707 323.678C588.43 322.356 587.718 320.589 587.723 318.752V315.36C587.723 314.277 587.293 313.238 586.527 312.472C585.761 311.707 584.722 311.276 583.639 311.276C582.556 311.276 581.517 311.707 580.751 312.472C579.985 313.238 579.555 314.277 579.555 315.36V352.438C579.555 353.123 579.689 353.801 579.951 354.433C580.213 355.065 580.597 355.64 581.081 356.124C581.565 356.608 582.14 356.992 582.772 357.254C583.405 357.516 584.082 357.651 584.767 357.651H605.416C606.1 357.651 606.778 357.516 607.41 357.254C608.043 356.992 608.617 356.608 609.101 356.124C609.585 355.64 609.969 355.065 610.231 354.433C610.493 353.801 610.628 353.123 610.628 352.438V315.353C610.628 314.27 610.198 313.231 609.432 312.465C608.666 311.699 607.627 311.269 606.544 311.269C605.461 311.269 604.422 311.699 603.656 312.465C602.89 313.231 602.46 314.27 602.46 315.353Z" fill="white"/>
<path d="M516.944 531.602C516.944 528.154 504.72 525.355 489.633 525.355C474.547 525.355 462.323 528.154 462.323 531.602L459.388 562.419C466.229 561.305 475.81 561.233 484.264 566.489C487.278 568.418 490.605 569.808 494.096 570.594C499.972 571.829 508.819 572.122 519.464 567.609L516.944 531.602Z" fill="white"/>
<path d="M501.8 572.807C499.111 572.81 496.429 572.538 493.796 571.993C490.148 571.169 486.669 569.719 483.515 567.709C475.304 562.626 465.986 562.797 459.617 563.832L457.789 564.132L460.902 531.531C461.059 525.526 479.737 523.934 489.634 523.934C499.53 523.934 518.251 525.512 518.372 531.545L520.957 568.531L520.014 568.923C514.268 571.435 508.072 572.757 501.8 572.807ZM466.671 560.384C473.125 560.269 479.481 561.963 485.021 565.275C487.89 567.115 491.058 568.441 494.382 569.195C499.608 570.294 507.883 570.722 517.944 566.681L515.516 531.602C515.516 530.446 507.733 526.783 489.634 526.783C471.534 526.783 463.751 530.446 463.751 531.602V531.738L460.981 560.748C462.868 560.508 464.769 560.386 466.671 560.384Z" fill="#262626"/>
<path d="M521.349 565.082C510.018 569.594 500.593 569.302 494.339 568.066C490.652 567.282 487.121 565.895 483.886 563.961C474.839 558.699 464.679 558.777 457.396 559.884L454.419 589.208C454.038 592.943 454.446 596.716 455.614 600.284C456.783 603.851 458.687 607.134 461.204 609.92C463.721 612.706 466.794 614.933 470.225 616.457C473.656 617.981 477.368 618.768 481.123 618.768H496.424C500.117 618.768 503.77 618.006 507.155 616.53C510.54 615.054 513.585 612.896 516.098 610.19C518.611 607.484 520.538 604.289 521.76 600.804C522.982 597.319 523.472 593.619 523.199 589.936L521.349 565.082Z" fill="#F9B800"/>
<path d="M487.463 600.239H487.334C486.958 600.205 486.61 600.022 486.368 599.732C486.125 599.441 486.008 599.067 486.042 598.69L494.931 500.301C495.059 498.806 495.744 497.414 496.852 496.401C497.959 495.389 499.407 494.831 500.907 494.838H522.056C522.435 494.838 522.798 494.989 523.066 495.257C523.334 495.525 523.484 495.888 523.484 496.266C523.484 496.645 523.334 497.008 523.066 497.276C522.798 497.544 522.435 497.694 522.056 497.694H500.907C500.123 497.693 499.366 497.985 498.786 498.514C498.206 499.042 497.844 499.769 497.773 500.55L488.884 598.94C488.852 599.294 488.688 599.624 488.425 599.865C488.162 600.105 487.819 600.239 487.463 600.239Z" fill="#262626"/>
<path d="M489.576 539.078C488.755 539.078 487.934 539.078 487.12 539.035C478.331 538.703 469.696 536.618 461.723 532.902C461.553 532.823 461.4 532.711 461.273 532.572C461.146 532.434 461.048 532.272 460.984 532.096C460.919 531.919 460.89 531.732 460.898 531.545C460.907 531.357 460.951 531.173 461.031 531.003C461.11 530.833 461.222 530.68 461.36 530.553C461.499 530.426 461.661 530.327 461.837 530.263C462.013 530.199 462.201 530.17 462.388 530.178C462.576 530.186 462.76 530.231 462.93 530.31C470.55 533.865 478.804 535.861 487.206 536.179C497.238 536.54 507.214 534.529 516.323 530.31C516.493 530.23 516.678 530.184 516.866 530.176C517.054 530.167 517.242 530.196 517.419 530.26C517.596 530.324 517.759 530.423 517.897 530.55C518.036 530.678 518.148 530.831 518.227 531.002C518.306 531.173 518.351 531.358 518.358 531.546C518.365 531.734 518.336 531.922 518.27 532.099C518.205 532.275 518.105 532.437 517.976 532.575C517.848 532.713 517.694 532.824 517.522 532.902C508.762 536.953 499.228 539.06 489.576 539.078Z" fill="#262626"/>
<path d="M399.312 408.095C398.948 408.095 398.597 407.957 398.332 407.707C398.066 407.458 397.906 407.116 397.884 406.752L397.042 392.23C397.02 391.851 397.15 391.479 397.402 391.196C397.655 390.913 398.009 390.741 398.388 390.72C398.767 390.698 399.138 390.827 399.422 391.08C399.705 391.332 399.876 391.687 399.898 392.065L400.74 406.581C400.752 406.769 400.727 406.957 400.665 407.134C400.604 407.312 400.508 407.476 400.384 407.617C400.259 407.757 400.108 407.872 399.939 407.954C399.769 408.036 399.586 408.084 399.398 408.095H399.312Z" fill="#262626"/>
<path d="M413.792 407.038C413.428 407.039 413.077 406.9 412.812 406.65C412.546 406.401 412.386 406.059 412.364 405.696L411.522 391.173C411.511 390.985 411.537 390.798 411.599 390.62C411.661 390.443 411.757 390.279 411.882 390.139C412.007 389.999 412.158 389.885 412.328 389.803C412.497 389.721 412.68 389.674 412.868 389.663C413.055 389.652 413.243 389.678 413.42 389.74C413.598 389.802 413.761 389.898 413.902 390.023C414.042 390.148 414.156 390.299 414.238 390.468C414.319 390.638 414.367 390.821 414.378 391.009L415.22 405.56C415.232 405.748 415.206 405.936 415.145 406.113C415.084 406.291 414.988 406.455 414.864 406.596C414.739 406.736 414.588 406.851 414.418 406.933C414.249 407.015 414.066 407.063 413.878 407.074L413.792 407.038Z" fill="#262626"/>
<path d="M265.894 409.908H114.412C111.761 409.908 109.219 408.855 107.344 406.981C105.469 405.106 104.416 402.563 104.416 399.912V303.222C104.416 300.571 105.469 298.029 107.344 296.154C109.219 294.28 111.761 293.226 114.412 293.226H265.894C268.546 293.226 271.088 294.28 272.963 296.154C274.837 298.029 275.89 300.571 275.89 303.222V399.891C275.893 401.205 275.637 402.507 275.136 403.723C274.635 404.938 273.899 406.042 272.97 406.973C272.042 407.903 270.939 408.642 269.725 409.145C268.511 409.649 267.209 409.908 265.894 409.908ZM114.412 296.061C112.519 296.061 110.702 296.813 109.363 298.152C108.024 299.491 107.272 301.307 107.272 303.201V399.891C107.272 401.785 108.024 403.601 109.363 404.94C110.702 406.279 112.519 407.031 114.412 407.031H265.894C267.788 407.031 269.604 406.279 270.943 404.94C272.282 403.601 273.034 401.785 273.034 399.891V303.222C273.034 301.329 272.282 299.513 270.943 298.174C269.604 296.835 267.788 296.082 265.894 296.082L114.412 296.061Z" fill="#262626"/>
<path d="M252.286 366.354H188.126C185.054 366.354 182.564 368.844 182.564 371.916V373.937C182.564 377.009 185.054 379.499 188.126 379.499H252.286C255.357 379.499 257.848 377.009 257.848 373.937V371.916C257.848 368.844 255.357 366.354 252.286 366.354Z" fill="#FFBB45"/>
<path d="M254.706 333.089H185.705C185.326 333.089 184.963 332.939 184.695 332.671C184.428 332.403 184.277 332.04 184.277 331.661C184.277 331.282 184.428 330.919 184.695 330.651C184.963 330.383 185.326 330.233 185.705 330.233H254.706C255.085 330.233 255.448 330.383 255.716 330.651C255.984 330.919 256.134 331.282 256.134 331.661C256.134 332.04 255.984 332.403 255.716 332.671C255.448 332.939 255.085 333.089 254.706 333.089Z" fill="#262626"/>
<path d="M244.989 348.704H185.727C185.348 348.704 184.985 348.554 184.717 348.286C184.449 348.018 184.299 347.655 184.299 347.276C184.299 346.897 184.449 346.534 184.717 346.266C184.985 345.999 185.348 345.848 185.727 345.848H244.989C245.367 345.848 245.73 345.999 245.998 346.266C246.266 346.534 246.417 346.897 246.417 347.276C246.417 347.655 246.266 348.018 245.998 348.286C245.73 348.554 245.367 348.704 244.989 348.704Z" fill="#262626"/>
<path d="M136.625 334.631C136.246 334.631 135.883 334.481 135.615 334.213C135.347 333.945 135.197 333.582 135.197 333.203C135.075 328.205 136.939 325.185 138.524 323.543C140.291 321.69 142.712 320.6 145.271 320.508C147.77 320.551 150.151 321.577 151.897 323.364C153.518 324.992 155.467 328.02 155.382 333.189C155.382 333.568 155.231 333.931 154.963 334.199C154.695 334.466 154.332 334.617 153.954 334.617C153.575 334.617 153.212 334.466 152.944 334.199C152.676 333.931 152.526 333.568 152.526 333.189C152.576 329.012 151.098 326.656 149.877 325.413C148.66 324.184 147.021 323.463 145.293 323.4C143.5 323.471 141.807 324.24 140.573 325.542C138.845 327.327 137.974 329.955 138.053 333.146C138.053 333.525 137.902 333.888 137.635 334.156C137.367 334.424 137.003 334.574 136.625 334.574V334.631Z" fill="#262626"/>
<path d="M162.736 381.284H128.007C127.156 381.284 126.314 381.103 125.539 380.751C124.764 380.4 124.073 379.887 123.513 379.247C122.952 378.606 122.535 377.853 122.289 377.039C122.043 376.224 121.975 375.366 122.088 374.522L126.929 338.408C127.122 336.976 127.829 335.663 128.917 334.712C130.006 333.761 131.402 333.238 132.848 333.239H157.088C158.511 333.237 159.887 333.744 160.969 334.669C162.051 335.593 162.766 336.874 162.986 338.28L168.648 374.394C168.782 375.247 168.73 376.119 168.494 376.949C168.258 377.78 167.845 378.549 167.283 379.204C166.721 379.86 166.023 380.385 165.238 380.744C164.453 381.103 163.599 381.287 162.736 381.284Z" fill="#FFF1C9"/>
<path d="M416.206 618.439H300.788V593.485H416.206C417.8 593.485 419.329 594.118 420.457 595.246C421.584 596.373 422.218 597.902 422.218 599.497V612.42C422.219 613.21 422.064 613.993 421.762 614.723C421.46 615.453 421.018 616.117 420.459 616.676C419.901 617.235 419.238 617.678 418.508 617.981C417.778 618.283 416.996 618.439 416.206 618.439Z" fill="#262626"/>
<path d="M313.818 618.439H178.544C176.022 618.463 173.56 617.672 171.525 616.183C169.49 614.694 167.99 612.588 167.248 610.178L134.126 497.88C131.984 490.605 137.617 483.357 145.421 483.357H272.999C275.631 483.327 278.196 484.188 280.277 485.801C282.358 487.413 283.832 489.683 284.458 492.24L313.818 618.439Z" fill="#262626"/>
<path d="M215.572 580.29C225.923 580.29 234.314 571.899 234.314 561.548C234.314 551.196 225.923 542.805 215.572 542.805C205.221 542.805 196.829 551.196 196.829 561.548C196.829 571.899 205.221 580.29 215.572 580.29Z" fill="#FFF1C9"/>
<path d="M211.452 548.224C211.132 548.224 210.822 548.116 210.571 547.918C210.319 547.719 210.142 547.443 210.067 547.132L207.825 537.95C207.78 537.767 207.772 537.578 207.801 537.393C207.829 537.207 207.894 537.029 207.992 536.869C208.189 536.545 208.506 536.312 208.874 536.222C209.243 536.132 209.632 536.192 209.956 536.389C210.28 536.586 210.512 536.903 210.602 537.272L212.844 546.454C212.889 546.636 212.897 546.825 212.869 547.011C212.84 547.197 212.775 547.375 212.678 547.535C212.58 547.696 212.452 547.835 212.301 547.946C212.149 548.057 211.977 548.137 211.795 548.181C211.683 548.21 211.568 548.224 211.452 548.224Z" fill="#F9B800"/>
<path d="M676.209 618.182H110.192C109.814 618.182 109.451 618.032 109.183 617.764C108.915 617.496 108.764 617.133 108.764 616.754C108.764 616.375 108.915 616.012 109.183 615.744C109.451 615.477 109.814 615.326 110.192 615.326H676.209C676.587 615.326 676.951 615.477 677.219 615.744C677.486 616.012 677.637 616.375 677.637 616.754C677.637 617.133 677.486 617.496 677.219 617.764C676.951 618.032 676.587 618.182 676.209 618.182Z" fill="#262626"/>
<path d="M388.924 234.643C384.114 234.65 379.41 233.23 375.407 230.563C371.405 227.896 368.283 224.101 366.437 219.659C364.592 215.218 364.105 210.328 365.039 205.61C365.973 200.892 368.286 196.556 371.685 193.153C375.083 189.749 379.415 187.43 384.132 186.489C388.849 185.548 393.739 186.027 398.184 187.866C402.628 189.706 406.427 192.822 409.1 196.82C411.773 200.819 413.2 205.521 413.2 210.331C413.19 216.77 410.631 222.943 406.081 227.499C401.532 232.055 395.363 234.624 388.924 234.643ZM388.924 188.875C384.687 188.875 380.546 190.132 377.024 192.485C373.501 194.839 370.756 198.184 369.134 202.098C367.513 206.012 367.089 210.319 367.915 214.474C368.742 218.629 370.782 222.446 373.778 225.442C376.773 228.437 380.59 230.477 384.745 231.304C388.9 232.13 393.207 231.706 397.121 230.085C401.035 228.464 404.38 225.718 406.734 222.196C409.088 218.673 410.344 214.532 410.344 210.295C410.329 204.619 408.067 199.179 404.053 195.166C400.04 191.152 394.6 188.89 388.924 188.875Z" fill="white"/>
<path d="M389.931 125.708H387.924C384.864 125.708 382.384 128.188 382.384 131.248V177.044C382.384 180.104 384.864 182.585 387.924 182.585H389.931C392.991 182.585 395.471 180.104 395.471 177.044V131.248C395.471 128.188 392.991 125.708 389.931 125.708Z" fill="#262626"/>
<path d="M387.881 166.72C372.766 166.948 357.992 171.246 345.113 179.162C332.234 187.078 321.726 198.319 314.696 211.702C314.455 212.158 314.336 212.669 314.35 213.185C314.365 213.701 314.512 214.205 314.779 214.647C315.046 215.089 315.422 215.454 315.872 215.708C316.321 215.961 316.829 216.094 317.345 216.093H460.538C461.054 216.093 461.56 215.959 462.009 215.705C462.458 215.451 462.833 215.085 463.099 214.644C463.365 214.202 463.512 213.699 463.526 213.183C463.54 212.668 463.421 212.158 463.18 211.702C455.981 198.003 445.143 186.556 431.858 178.62C418.573 170.683 403.356 166.566 387.881 166.72Z" fill="#FFF1C9"/>
<path d="M344.941 202.391C335.545 202.391 327.884 196.044 327.77 195.965C327.48 195.721 327.299 195.372 327.267 194.994C327.235 194.616 327.354 194.242 327.598 193.952C327.843 193.662 328.192 193.481 328.57 193.449C328.947 193.417 329.322 193.536 329.612 193.78C330.24 194.309 345.091 206.547 357.772 193.866L358.636 193.002L359.628 193.716C360.342 194.23 377.064 206.197 389.409 193.859L390.245 193.016L391.23 193.688C394.041 195.491 397.118 196.84 400.348 197.686C407.024 199.371 412.55 198.086 416.77 193.859L417.655 192.974L418.648 193.73C419.312 194.237 435.12 206.054 447.322 193.859C447.593 193.612 447.949 193.479 448.315 193.488C448.682 193.496 449.031 193.645 449.291 193.904C449.55 194.163 449.7 194.511 449.71 194.878C449.72 195.244 449.588 195.6 449.342 195.872C437.247 207.968 421.946 199.335 417.926 196.694C413.086 200.978 406.767 202.277 399.562 200.435C396.415 199.601 393.399 198.333 390.602 196.665C378.464 207.711 363.006 199.243 358.95 196.665C354.302 200.942 349.425 202.391 344.941 202.391Z" fill="#D3B970"/>
<path d="M304.458 580.933C304.15 580.925 303.854 580.818 303.612 580.627C303.371 580.437 303.197 580.174 303.117 579.878C303.036 579.581 303.054 579.266 303.167 578.98C303.28 578.694 303.482 578.453 303.744 578.291C308.385 575.435 313.197 572.779 318.024 570.315C324.45 567.067 331.068 564.096 337.766 561.49C338.119 561.353 338.512 561.362 338.859 561.514C339.206 561.667 339.478 561.951 339.615 562.304C339.752 562.658 339.744 563.051 339.591 563.398C339.438 563.744 339.154 564.016 338.801 564.154C332.189 566.724 325.635 569.651 319.316 572.864C314.539 575.292 309.798 577.941 305.207 580.718C304.983 580.86 304.723 580.934 304.458 580.933Z" fill="#262626"/>
<path d="M120.167 539.835L128.442 508.505H81.4968L88.951 540.178C80.4847 543.872 73.5559 550.379 69.3389 558.598C65.1219 566.816 63.876 576.239 65.8124 585.271C67.7488 594.303 72.7484 602.388 79.9638 608.155C87.1793 613.922 96.1668 617.018 105.403 616.916C114.64 616.815 123.557 613.523 130.645 607.599C137.732 601.674 142.552 593.482 144.29 584.41C146.028 575.338 144.575 565.944 140.179 557.82C135.782 549.696 128.712 543.342 120.167 539.835Z" fill="white"/>
<path d="M104.966 618.332C95.5471 618.324 86.4115 615.11 79.0625 609.219C71.7134 603.328 66.5888 595.11 64.5319 585.919C62.4751 576.727 63.6085 567.109 67.7457 558.648C71.8828 550.186 78.7773 543.385 87.2945 539.364L79.6904 507.077H130.292L121.866 539.007C130.532 542.882 137.606 549.613 141.907 558.075C146.207 566.538 147.474 576.22 145.496 585.504C143.518 594.788 138.415 603.113 131.038 609.088C123.662 615.062 114.459 618.325 104.966 618.332ZM83.2961 509.933L90.6146 541.013L89.5222 541.484C81.3555 545.046 74.6715 551.322 70.6029 559.248C66.5343 567.175 65.3315 576.264 67.1983 584.976C69.0651 593.688 73.8866 601.486 80.8458 607.05C87.8049 612.613 96.4736 615.599 105.383 615.502C114.292 615.405 122.893 612.23 129.729 606.516C136.565 600.802 141.216 592.901 142.892 584.15C144.568 575.4 143.167 566.339 138.927 558.503C134.686 550.667 127.867 544.538 119.624 541.156L118.468 540.677L126.586 509.933H83.2961Z" fill="#262626"/>
<path d="M104.952 512.396C118.982 512.396 130.356 509.986 130.356 507.012C130.356 504.039 118.982 501.629 104.952 501.629C90.9214 501.629 79.5476 504.039 79.5476 507.012C79.5476 509.986 90.9214 512.396 104.952 512.396Z" fill="#262626"/>
<path d="M98.0402 511.346C97.7488 511.345 97.4647 511.255 97.226 511.088C96.9874 510.921 96.8056 510.684 96.705 510.411C88.0371 486.778 70.1228 467.571 69.9443 467.407C69.8154 467.27 69.7146 467.11 69.6477 466.934C69.5808 466.759 69.5491 466.572 69.5544 466.385C69.5597 466.197 69.6019 466.012 69.6786 465.841C69.7553 465.67 69.865 465.515 70.0014 465.386C70.1378 465.257 70.2983 465.156 70.4737 465.089C70.6491 465.023 70.8359 464.991 71.0236 464.996C71.2112 465.001 71.3959 465.044 71.5673 465.12C71.7386 465.197 71.8931 465.307 72.022 465.443C72.2077 465.643 90.5146 485.235 99.3825 509.426C99.5053 509.777 99.486 510.163 99.3286 510.5C99.1712 510.838 98.8882 511.1 98.54 511.232C98.3812 511.299 98.2121 511.337 98.0402 511.346Z" fill="#262626"/>
<path d="M109.478 511.539C109.1 511.539 108.737 511.389 108.469 511.121C108.201 510.853 108.05 510.49 108.05 510.111V489.662C108.05 489.283 108.201 488.92 108.469 488.652C108.737 488.384 109.1 488.234 109.478 488.234C109.857 488.234 110.22 488.384 110.488 488.652C110.756 488.92 110.906 489.283 110.906 489.662V510.111C110.906 510.49 110.756 510.853 110.488 511.121C110.22 511.389 109.857 511.539 109.478 511.539Z" fill="#262626"/>
<path d="M78.2124 453.112H72.122C72.0078 452.798 71.8792 452.491 71.7436 452.191L76.1775 448.264C76.647 447.86 77.0315 447.367 77.3087 446.813C77.5858 446.259 77.7502 445.655 77.7922 445.037C77.8341 444.419 77.7529 443.799 77.5532 443.212C77.3534 442.626 77.0392 442.085 76.6287 441.621C76.2182 441.157 75.7196 440.779 75.1619 440.51C74.6042 440.24 73.9984 440.084 73.3799 440.05C72.7613 440.017 72.1422 440.106 71.5586 440.314C70.9749 440.522 70.4383 440.843 69.98 441.26L65.3104 445.394C65.239 445.458 65.1819 445.537 65.1105 445.608C64.8178 445.473 64.5179 445.351 64.2109 445.237V439.575C64.1636 438.365 63.6499 437.221 62.7773 436.382C61.9047 435.543 60.7412 435.074 59.5306 435.074C58.32 435.074 57.1565 435.543 56.2839 436.382C55.4114 437.221 54.8976 438.365 54.8503 439.575V445.237C54.4176 445.396 53.9934 445.577 53.5794 445.78C53.448 445.617 53.3048 445.464 53.151 445.323L48.4458 441.26C47.4987 440.505 46.2962 440.147 45.0905 440.259C43.8848 440.372 42.7696 440.948 41.979 441.865C41.1883 442.782 40.7836 443.97 40.8498 445.179C40.916 446.388 41.4479 447.525 42.3339 448.35L47.0606 452.427C47.098 452.46 47.1386 452.488 47.182 452.513C47.0963 452.713 47.0249 452.92 46.9464 453.127H41.0773C39.8431 453.132 38.6612 453.626 37.7892 454.499C36.9172 455.372 36.4258 456.555 36.422 457.789C36.422 459.03 36.9145 460.22 37.7913 461.099C38.6682 461.977 39.8577 462.471 41.0987 462.473H46.9107L47.0535 462.859H47.0106L42.3339 466.993C41.4506 467.828 40.9264 468.973 40.8723 470.188C40.8182 471.402 41.2383 472.59 42.0439 473.5C42.8495 474.411 43.9774 474.972 45.1893 475.066C46.4013 475.16 47.6023 474.779 48.5386 474.004L53.2081 469.87L53.3081 469.763C53.8187 470.038 54.3484 470.277 54.8932 470.477V476.089C54.9404 477.299 55.4542 478.443 56.3268 479.282C57.1993 480.121 58.3629 480.59 59.5734 480.59C60.784 480.59 61.9476 480.121 62.8201 479.282C63.6927 478.443 64.2065 477.299 64.2537 476.089V470.534C64.575 470.413 64.8963 470.284 65.2105 470.134L69.7944 474.083C70.7383 474.89 71.9645 475.29 73.2031 475.193C74.4417 475.097 75.5912 474.513 76.3989 473.569C77.2065 472.625 77.6061 471.398 77.5097 470.16C77.4132 468.921 76.8288 467.772 75.8848 466.964L71.815 463.451C71.9578 463.13 72.0863 462.801 72.2077 462.473H78.2124C79.4547 462.473 80.646 461.98 81.5244 461.101C82.4028 460.223 82.8963 459.031 82.8963 457.789C82.8944 456.548 82.4001 455.359 81.5219 454.482C80.6437 453.605 79.4534 453.112 78.2124 453.112Z" fill="#FFE18B"/>
<path d="M78.2124 453.112H72.122C72.0078 452.798 71.8792 452.491 71.7436 452.191L76.1775 448.264C76.647 447.86 77.0315 447.367 77.3087 446.813C77.5858 446.259 77.7502 445.655 77.7922 445.037C77.8341 444.419 77.7529 443.799 77.5532 443.212C77.3534 442.626 77.0392 442.085 76.6287 441.621C76.2182 441.157 75.7196 440.779 75.1619 440.51C74.6042 440.24 73.9984 440.084 73.3799 440.05C72.7613 440.017 72.1422 440.106 71.5586 440.314C70.9749 440.522 70.4383 440.843 69.98 441.26L65.3104 445.394C65.239 445.458 65.1819 445.537 65.1105 445.608C64.8178 445.473 64.5179 445.351 64.2109 445.237V439.575C64.1636 438.365 63.6499 437.221 62.7773 436.382C61.9047 435.543 60.7412 435.074 59.5306 435.074C58.32 435.074 57.1565 435.543 56.2839 436.382C55.4114 437.221 54.8976 438.365 54.8503 439.575V445.237C54.4176 445.396 53.9934 445.577 53.5794 445.78C53.448 445.617 53.3048 445.464 53.151 445.323L48.4458 441.26C47.4987 440.505 46.2962 440.147 45.0905 440.259C43.8848 440.372 42.7696 440.948 41.979 441.865C41.1883 442.782 40.7836 443.97 40.8498 445.179C40.916 446.388 41.4479 447.525 42.3339 448.35L47.0606 452.427C47.098 452.46 47.1386 452.488 47.182 452.513C47.0963 452.713 47.0249 452.92 46.9464 453.127H41.0773C39.8431 453.132 38.6612 453.626 37.7892 454.499C36.9172 455.372 36.4258 456.555 36.422 457.789C36.422 459.03 36.9145 460.22 37.7913 461.099C38.6682 461.977 39.8577 462.471 41.0987 462.473H46.9107L47.0535 462.859H47.0106L42.3339 466.993C41.4506 467.828 40.9264 468.973 40.8723 470.188C40.8182 471.402 41.2383 472.59 42.0439 473.5C42.8495 474.411 43.9774 474.972 45.1893 475.066C46.4013 475.16 47.6023 474.779 48.5386 474.004L53.2081 469.87L53.3081 469.763C53.8187 470.038 54.3484 470.277 54.8932 470.477V476.089C54.9404 477.299 55.4542 478.443 56.3268 479.282C57.1993 480.121 58.3629 480.59 59.5734 480.59C60.784 480.59 61.9476 480.121 62.8201 479.282C63.6927 478.443 64.2065 477.299 64.2537 476.089V470.534C64.575 470.413 64.8963 470.284 65.2105 470.134L69.7944 474.083C70.7383 474.89 71.9645 475.29 73.2031 475.193C74.4417 475.097 75.5912 474.513 76.3989 473.569C77.2065 472.625 77.6061 471.398 77.5097 470.16C77.4132 468.921 76.8288 467.772 75.8848 466.964L71.815 463.451C71.9578 463.13 72.0863 462.801 72.2077 462.473H78.2124C79.4547 462.473 80.646 461.98 81.5244 461.101C82.4028 460.223 82.8963 459.031 82.8963 457.789C82.8944 456.548 82.4001 455.359 81.5219 454.482C80.6437 453.605 79.4534 453.112 78.2124 453.112Z" fill="#FFE18B"/>
<path d="M78.2124 453.112H72.122C72.0078 452.798 71.8792 452.491 71.7436 452.191L76.1775 448.264C76.647 447.86 77.0315 447.367 77.3087 446.813C77.5858 446.259 77.7502 445.655 77.7922 445.037C77.8341 444.419 77.7529 443.799 77.5532 443.212C77.3534 442.626 77.0392 442.085 76.6287 441.621C76.2182 441.157 75.7196 440.779 75.1619 440.51C74.6042 440.24 73.9984 440.084 73.3799 440.05C72.7613 440.017 72.1422 440.106 71.5586 440.314C70.9749 440.522 70.4383 440.843 69.98 441.26L65.3104 445.394C65.239 445.458 65.1819 445.537 65.1105 445.608C64.8178 445.473 64.5179 445.351 64.2109 445.237V439.575C64.1636 438.365 63.6499 437.221 62.7773 436.382C61.9047 435.543 60.7412 435.074 59.5306 435.074C58.32 435.074 57.1565 435.543 56.2839 436.382C55.4114 437.221 54.8976 438.365 54.8503 439.575V445.237C54.4176 445.396 53.9934 445.577 53.5794 445.78C53.448 445.617 53.3048 445.464 53.151 445.323L48.4458 441.26C47.4987 440.505 46.2962 440.147 45.0905 440.259C43.8848 440.372 42.7696 440.948 41.979 441.865C41.1883 442.782 40.7836 443.97 40.8498 445.179C40.916 446.388 41.4479 447.525 42.3339 448.35L47.0606 452.427C47.098 452.46 47.1386 452.488 47.182 452.513C47.0963 452.713 47.0249 452.92 46.9464 453.127H41.0773C39.8431 453.132 38.6612 453.626 37.7892 454.499C36.9172 455.372 36.4258 456.555 36.422 457.789C36.422 459.03 36.9145 460.22 37.7913 461.099C38.6682 461.977 39.8577 462.471 41.0987 462.473H46.9107L47.0535 462.859H47.0106L42.3339 466.993C41.4506 467.828 40.9264 468.973 40.8723 470.188C40.8182 471.402 41.2383 472.59 42.0439 473.5C42.8495 474.411 43.9774 474.972 45.1893 475.066C46.4013 475.16 47.6023 474.779 48.5386 474.004L53.2081 469.87L53.3081 469.763C53.8187 470.038 54.3484 470.277 54.8932 470.477V476.089C54.9404 477.299 55.4542 478.443 56.3268 479.282C57.1993 480.121 58.3629 480.59 59.5734 480.59C60.784 480.59 61.9476 480.121 62.8201 479.282C63.6927 478.443 64.2065 477.299 64.2537 476.089V470.534C64.575 470.413 64.8963 470.284 65.2105 470.134L69.7944 474.083C70.7383 474.89 71.9645 475.29 73.2031 475.193C74.4417 475.097 75.5912 474.513 76.3989 473.569C77.2065 472.625 77.6061 471.398 77.5097 470.16C77.4132 468.921 76.8288 467.772 75.8848 466.964L71.815 463.451C71.9578 463.13 72.0863 462.801 72.2077 462.473H78.2124C79.4547 462.473 80.646 461.98 81.5244 461.101C82.4028 460.223 82.8963 459.031 82.8963 457.789C82.8944 456.548 82.4001 455.359 81.5219 454.482C80.6437 453.605 79.4534 453.112 78.2124 453.112Z" fill="#FFE18B"/>
<path d="M78.2124 453.112H72.122C72.0078 452.798 71.8792 452.491 71.7436 452.191L76.1775 448.264C76.647 447.86 77.0315 447.367 77.3087 446.813C77.5858 446.259 77.7502 445.655 77.7922 445.037C77.8341 444.419 77.7529 443.799 77.5532 443.212C77.3534 442.626 77.0392 442.085 76.6287 441.621C76.2182 441.157 75.7196 440.779 75.1619 440.51C74.6042 440.24 73.9984 440.084 73.3799 440.05C72.7613 440.017 72.1422 440.106 71.5586 440.314C70.9749 440.522 70.4383 440.843 69.98 441.26L65.3104 445.394C65.239 445.458 65.1819 445.537 65.1105 445.608C64.8178 445.473 64.5179 445.351 64.2109 445.237V439.575C64.1636 438.365 63.6499 437.221 62.7773 436.382C61.9047 435.543 60.7412 435.074 59.5306 435.074C58.32 435.074 57.1565 435.543 56.2839 436.382C55.4114 437.221 54.8976 438.365 54.8503 439.575V445.237C54.4176 445.396 53.9934 445.577 53.5794 445.78C53.448 445.617 53.3048 445.464 53.151 445.323L48.4458 441.26C47.4987 440.505 46.2962 440.147 45.0905 440.259C43.8848 440.372 42.7696 440.948 41.979 441.865C41.1883 442.782 40.7836 443.97 40.8498 445.179C40.916 446.388 41.4479 447.525 42.3339 448.35L47.0606 452.427C47.098 452.46 47.1386 452.488 47.182 452.513C47.0963 452.713 47.0249 452.92 46.9464 453.127H41.0773C39.8431 453.132 38.6612 453.626 37.7892 454.499C36.9172 455.372 36.4258 456.555 36.422 457.789C36.422 459.03 36.9145 460.22 37.7913 461.099C38.6682 461.977 39.8577 462.471 41.0987 462.473H46.9107L47.0535 462.859H47.0106L42.3339 466.993C41.4506 467.828 40.9264 468.973 40.8723 470.188C40.8182 471.402 41.2383 472.59 42.0439 473.5C42.8495 474.411 43.9774 474.972 45.1893 475.066C46.4013 475.16 47.6023 474.779 48.5386 474.004L53.2081 469.87L53.3081 469.763C53.8187 470.038 54.3484 470.277 54.8932 470.477V476.089C54.9404 477.299 55.4542 478.443 56.3268 479.282C57.1993 480.121 58.3629 480.59 59.5734 480.59C60.784 480.59 61.9476 480.121 62.8201 479.282C63.6927 478.443 64.2065 477.299 64.2537 476.089V470.534C64.575 470.413 64.8963 470.284 65.2105 470.134L69.7944 474.083C70.7383 474.89 71.9645 475.29 73.2031 475.193C74.4417 475.097 75.5912 474.513 76.3989 473.569C77.2065 472.625 77.6061 471.398 77.5097 470.16C77.4132 468.921 76.8288 467.772 75.8848 466.964L71.815 463.451C71.9578 463.13 72.0863 462.801 72.2077 462.473H78.2124C79.4547 462.473 80.646 461.98 81.5244 461.101C82.4028 460.223 82.8963 459.031 82.8963 457.789C82.8944 456.548 82.4001 455.359 81.5219 454.482C80.6437 453.605 79.4534 453.112 78.2124 453.112Z" fill="#FFE18B"/>
<path d="M78.2124 453.112H72.122C72.0078 452.798 71.8792 452.491 71.7436 452.191L76.1775 448.264C76.647 447.86 77.0315 447.367 77.3087 446.813C77.5858 446.259 77.7502 445.655 77.7922 445.037C77.8341 444.419 77.7529 443.799 77.5532 443.212C77.3534 442.626 77.0392 442.085 76.6287 441.621C76.2182 441.157 75.7196 440.779 75.1619 440.51C74.6042 440.24 73.9984 440.084 73.3799 440.05C72.7613 440.017 72.1422 440.106 71.5586 440.314C70.9749 440.522 70.4383 440.843 69.98 441.26L65.3104 445.394C65.239 445.458 65.1819 445.537 65.1105 445.608C64.8178 445.473 64.5179 445.351 64.2109 445.237V439.575C64.1636 438.365 63.6499 437.221 62.7773 436.382C61.9047 435.543 60.7412 435.074 59.5306 435.074C58.32 435.074 57.1565 435.543 56.2839 436.382C55.4114 437.221 54.8976 438.365 54.8503 439.575V445.237C54.4176 445.396 53.9934 445.577 53.5794 445.78C53.448 445.617 53.3048 445.464 53.151 445.323L48.4458 441.26C47.4987 440.505 46.2962 440.147 45.0905 440.259C43.8848 440.372 42.7696 440.948 41.979 441.865C41.1883 442.782 40.7836 443.97 40.8498 445.179C40.916 446.388 41.4479 447.525 42.3339 448.35L47.0606 452.427C47.098 452.46 47.1386 452.488 47.182 452.513C47.0963 452.713 47.0249 452.92 46.9464 453.127H41.0773C39.8431 453.132 38.6612 453.626 37.7892 454.499C36.9172 455.372 36.4258 456.555 36.422 457.789C36.422 459.03 36.9145 460.22 37.7913 461.099C38.6682 461.977 39.8577 462.471 41.0987 462.473H46.9107L47.0535 462.859H47.0106L42.3339 466.993C41.4506 467.828 40.9264 468.973 40.8723 470.188C40.8182 471.402 41.2383 472.59 42.0439 473.5C42.8495 474.411 43.9774 474.972 45.1893 475.066C46.4013 475.16 47.6023 474.779 48.5386 474.004L53.2081 469.87L53.3081 469.763C53.8187 470.038 54.3484 470.277 54.8932 470.477V476.089C54.9404 477.299 55.4542 478.443 56.3268 479.282C57.1993 480.121 58.3629 480.59 59.5734 480.59C60.784 480.59 61.9476 480.121 62.8201 479.282C63.6927 478.443 64.2065 477.299 64.2537 476.089V470.534C64.575 470.413 64.8963 470.284 65.2105 470.134L69.7944 474.083C70.7383 474.89 71.9645 475.29 73.2031 475.193C74.4417 475.097 75.5912 474.513 76.3989 473.569C77.2065 472.625 77.6061 471.398 77.5097 470.16C77.4132 468.921 76.8288 467.772 75.8848 466.964L71.815 463.451C71.9578 463.13 72.0863 462.801 72.2077 462.473H78.2124C79.4547 462.473 80.646 461.98 81.5244 461.101C82.4028 460.223 82.8963 459.031 82.8963 457.789C82.8944 456.548 82.4001 455.359 81.5219 454.482C80.6437 453.605 79.4534 453.112 78.2124 453.112Z" fill="#FFE18B"/>
<path d="M78.2124 453.112H72.122C72.0078 452.798 71.8792 452.491 71.7436 452.191L76.1775 448.264C76.647 447.86 77.0315 447.367 77.3087 446.813C77.5858 446.259 77.7502 445.655 77.7922 445.037C77.8341 444.419 77.7529 443.799 77.5532 443.212C77.3534 442.626 77.0392 442.085 76.6287 441.621C76.2182 441.157 75.7196 440.779 75.1619 440.51C74.6042 440.24 73.9984 440.084 73.3799 440.05C72.7613 440.017 72.1422 440.106 71.5586 440.314C70.9749 440.522 70.4383 440.843 69.98 441.26L65.3104 445.394C65.239 445.458 65.1819 445.537 65.1105 445.608C64.8178 445.473 64.5179 445.351 64.2109 445.237V439.575C64.1636 438.365 63.6499 437.221 62.7773 436.382C61.9047 435.543 60.7412 435.074 59.5306 435.074C58.32 435.074 57.1565 435.543 56.2839 436.382C55.4114 437.221 54.8976 438.365 54.8503 439.575V445.237C54.4176 445.396 53.9934 445.577 53.5794 445.78C53.448 445.617 53.3048 445.464 53.151 445.323L48.4458 441.26C47.4987 440.505 46.2962 440.147 45.0905 440.259C43.8848 440.372 42.7696 440.948 41.979 441.865C41.1883 442.782 40.7836 443.97 40.8498 445.179C40.916 446.388 41.4479 447.525 42.3339 448.35L47.0606 452.427C47.098 452.46 47.1386 452.488 47.182 452.513C47.0963 452.713 47.0249 452.92 46.9464 453.127H41.0773C39.8431 453.132 38.6612 453.626 37.7892 454.499C36.9172 455.372 36.4258 456.555 36.422 457.789C36.422 459.03 36.9145 460.22 37.7913 461.099C38.6682 461.977 39.8577 462.471 41.0987 462.473H46.9107L47.0535 462.859H47.0106L42.3339 466.993C41.4506 467.828 40.9264 468.973 40.8723 470.188C40.8182 471.402 41.2383 472.59 42.0439 473.5C42.8495 474.411 43.9774 474.972 45.1893 475.066C46.4013 475.16 47.6023 474.779 48.5386 474.004L53.2081 469.87L53.3081 469.763C53.8187 470.038 54.3484 470.277 54.8932 470.477V476.089C54.9404 477.299 55.4542 478.443 56.3268 479.282C57.1993 480.121 58.3629 480.59 59.5734 480.59C60.784 480.59 61.9476 480.121 62.8201 479.282C63.6927 478.443 64.2065 477.299 64.2537 476.089V470.534C64.575 470.413 64.8963 470.284 65.2105 470.134L69.7944 474.083C70.7383 474.89 71.9645 475.29 73.2031 475.193C74.4417 475.097 75.5912 474.513 76.3989 473.569C77.2065 472.625 77.6061 471.398 77.5097 470.16C77.4132 468.921 76.8288 467.772 75.8848 466.964L71.815 463.451C71.9578 463.13 72.0863 462.801 72.2077 462.473H78.2124C79.4547 462.473 80.646 461.98 81.5244 461.101C82.4028 460.223 82.8963 459.031 82.8963 457.789C82.8944 456.548 82.4001 455.359 81.5219 454.482C80.6437 453.605 79.4534 453.112 78.2124 453.112Z" fill="#FFE18B"/>
<path d="M78.2124 453.112H72.122C72.0078 452.798 71.8792 452.491 71.7436 452.191L76.1775 448.264C76.647 447.86 77.0315 447.367 77.3087 446.813C77.5858 446.259 77.7502 445.655 77.7922 445.037C77.8341 444.419 77.7529 443.799 77.5532 443.212C77.3534 442.626 77.0392 442.085 76.6287 441.621C76.2182 441.157 75.7196 440.779 75.1619 440.51C74.6042 440.24 73.9984 440.084 73.3799 440.05C72.7613 440.017 72.1422 440.106 71.5586 440.314C70.9749 440.522 70.4383 440.843 69.98 441.26L65.3104 445.394C65.239 445.458 65.1819 445.537 65.1105 445.608C64.8178 445.473 64.5179 445.351 64.2109 445.237V439.575C64.1636 438.365 63.6499 437.221 62.7773 436.382C61.9047 435.543 60.7412 435.074 59.5306 435.074C58.32 435.074 57.1565 435.543 56.2839 436.382C55.4114 437.221 54.8976 438.365 54.8503 439.575V445.237C54.4176 445.396 53.9934 445.577 53.5794 445.78C53.448 445.617 53.3048 445.464 53.151 445.323L48.4458 441.26C47.4987 440.505 46.2962 440.147 45.0905 440.259C43.8848 440.372 42.7696 440.948 41.979 441.865C41.1883 442.782 40.7836 443.97 40.8498 445.179C40.916 446.388 41.4479 447.525 42.3339 448.35L47.0606 452.427C47.098 452.46 47.1386 452.488 47.182 452.513C47.0963 452.713 47.0249 452.92 46.9464 453.127H41.0773C39.8431 453.132 38.6612 453.626 37.7892 454.499C36.9172 455.372 36.4258 456.555 36.422 457.789C36.422 459.03 36.9145 460.22 37.7913 461.099C38.6682 461.977 39.8577 462.471 41.0987 462.473H46.9107L47.0535 462.859H47.0106L42.3339 466.993C41.4506 467.828 40.9264 468.973 40.8723 470.188C40.8182 471.402 41.2383 472.59 42.0439 473.5C42.8495 474.411 43.9774 474.972 45.1893 475.066C46.4013 475.16 47.6023 474.779 48.5386 474.004L53.2081 469.87L53.3081 469.763C53.8187 470.038 54.3484 470.277 54.8932 470.477V476.089C54.9404 477.299 55.4542 478.443 56.3268 479.282C57.1993 480.121 58.3629 480.59 59.5734 480.59C60.784 480.59 61.9476 480.121 62.8201 479.282C63.6927 478.443 64.2065 477.299 64.2537 476.089V470.534C64.575 470.413 64.8963 470.284 65.2105 470.134L69.7944 474.083C70.7383 474.89 71.9645 475.29 73.2031 475.193C74.4417 475.097 75.5912 474.513 76.3989 473.569C77.2065 472.625 77.6061 471.398 77.5097 470.16C77.4132 468.921 76.8288 467.772 75.8848 466.964L71.815 463.451C71.9578 463.13 72.0863 462.801 72.2077 462.473H78.2124C79.4547 462.473 80.646 461.98 81.5244 461.101C82.4028 460.223 82.8963 459.031 82.8963 457.789C82.8944 456.548 82.4001 455.359 81.5219 454.482C80.6437 453.605 79.4534 453.112 78.2124 453.112Z" fill="#FFE18B"/>
<path d="M128.05 470.355H121.988C121.874 470.041 121.745 469.741 121.602 469.442L126.043 465.515C126.927 464.679 127.451 463.534 127.505 462.319C127.559 461.105 127.139 459.917 126.333 459.007C125.528 458.096 124.4 457.535 123.188 457.441C121.976 457.347 120.775 457.728 119.839 458.503L115.169 462.637C115.099 462.705 115.032 462.777 114.969 462.851C114.676 462.716 114.369 462.594 114.062 462.48V456.818C114.015 455.608 113.501 454.464 112.629 453.625C111.756 452.786 110.593 452.317 109.382 452.317C108.172 452.317 107.008 452.786 106.135 453.625C105.263 454.464 104.749 455.608 104.702 456.818V462.48C104.273 462.637 103.852 462.823 103.438 463.023C103.305 462.862 103.162 462.709 103.01 462.566L98.283 458.489C97.8218 458.059 97.2786 457.727 96.6861 457.512C96.0935 457.298 95.4636 457.205 94.8343 457.239C94.2049 457.273 93.589 457.435 93.0234 457.713C92.4578 457.991 91.9541 458.38 91.5426 458.858C91.1311 459.335 90.8201 459.891 90.6284 460.491C90.4367 461.091 90.3681 461.724 90.4268 462.352C90.4854 462.98 90.6702 463.589 90.9699 464.143C91.2697 464.698 91.6782 465.186 92.1711 465.579L96.8907 469.656C96.9318 469.687 96.9747 469.715 97.0192 469.741C96.9335 469.941 96.855 470.148 96.7836 470.355H90.9145C89.6741 470.355 88.4846 470.848 87.6076 471.725C86.7305 472.602 86.2378 473.792 86.2378 475.032C86.2378 476.273 86.7303 477.463 87.6071 478.342C88.484 479.22 89.6735 479.714 90.9145 479.716H96.7264C96.7693 479.845 96.8193 479.98 96.8692 480.109C96.8692 480.109 96.8692 480.109 96.8264 480.109L92.1497 484.243C91.6659 484.643 91.2677 485.137 90.9786 485.695C90.6895 486.252 90.5155 486.862 90.4669 487.488C90.4184 488.114 90.4962 488.744 90.6959 489.339C90.8955 489.935 91.2129 490.484 91.6291 490.955C92.0453 491.425 92.5519 491.807 93.1186 492.077C93.6854 492.348 94.3008 492.502 94.9282 492.53C95.5556 492.558 96.1823 492.459 96.7709 492.24C97.3595 492.021 97.898 491.686 98.3544 491.254L103.024 487.12L103.124 487.02C103.634 487.292 104.161 487.53 104.702 487.734V493.382C104.749 494.592 105.263 495.736 106.135 496.575C107.008 497.414 108.172 497.883 109.382 497.883C110.593 497.883 111.756 497.414 112.629 496.575C113.501 495.736 114.015 494.592 114.062 493.382V487.741C114.391 487.62 114.712 487.491 115.026 487.341L119.603 491.29C120.068 491.692 120.608 491.998 121.191 492.191C121.775 492.384 122.39 492.461 123.003 492.416C123.616 492.371 124.214 492.206 124.764 491.93C125.313 491.654 125.802 491.273 126.204 490.808C126.606 490.343 126.912 489.803 127.105 489.22C127.298 488.636 127.375 488.021 127.33 487.408C127.285 486.795 127.12 486.197 126.844 485.647C126.568 485.098 126.187 484.609 125.722 484.207L121.645 480.694C121.795 480.373 121.923 480.044 122.045 479.716H128.05C129.291 479.714 130.48 479.22 131.357 478.342C132.234 477.463 132.726 476.273 132.726 475.032C132.726 474.418 132.605 473.81 132.37 473.242C132.135 472.675 131.791 472.16 131.357 471.725C130.922 471.291 130.407 470.946 129.839 470.711C129.272 470.476 128.664 470.355 128.05 470.355Z" fill="#FFE18B"/>
<path d="M128.05 470.355H121.988C121.874 470.041 121.745 469.741 121.602 469.442L126.043 465.515C126.927 464.679 127.451 463.534 127.505 462.319C127.559 461.105 127.139 459.917 126.333 459.007C125.528 458.096 124.4 457.535 123.188 457.441C121.976 457.347 120.775 457.728 119.839 458.503L115.169 462.637C115.099 462.705 115.032 462.777 114.969 462.851C114.676 462.716 114.369 462.594 114.062 462.48V456.818C114.015 455.608 113.501 454.464 112.629 453.625C111.756 452.786 110.593 452.317 109.382 452.317C108.172 452.317 107.008 452.786 106.135 453.625C105.263 454.464 104.749 455.608 104.702 456.818V462.48C104.273 462.637 103.852 462.823 103.438 463.023C103.305 462.862 103.162 462.709 103.01 462.566L98.283 458.489C97.8218 458.059 97.2786 457.727 96.6861 457.512C96.0935 457.298 95.4636 457.205 94.8343 457.239C94.2049 457.273 93.589 457.435 93.0234 457.713C92.4578 457.991 91.9541 458.38 91.5426 458.858C91.1311 459.335 90.8201 459.891 90.6284 460.491C90.4367 461.091 90.3681 461.724 90.4268 462.352C90.4854 462.98 90.6702 463.589 90.9699 464.143C91.2697 464.698 91.6782 465.186 92.1711 465.579L96.8907 469.656C96.9318 469.687 96.9747 469.715 97.0192 469.741C96.9335 469.941 96.855 470.148 96.7836 470.355H90.9145C89.6741 470.355 88.4846 470.848 87.6076 471.725C86.7305 472.602 86.2378 473.792 86.2378 475.032C86.2378 476.273 86.7303 477.463 87.6071 478.342C88.484 479.22 89.6735 479.714 90.9145 479.716H96.7264C96.7693 479.845 96.8193 479.98 96.8692 480.109C96.8692 480.109 96.8692 480.109 96.8264 480.109L92.1497 484.243C91.6659 484.643 91.2677 485.137 90.9786 485.695C90.6895 486.252 90.5155 486.862 90.4669 487.488C90.4184 488.114 90.4962 488.744 90.6959 489.339C90.8955 489.935 91.2129 490.484 91.6291 490.955C92.0453 491.425 92.5519 491.807 93.1186 492.077C93.6854 492.348 94.3008 492.502 94.9282 492.53C95.5556 492.558 96.1823 492.459 96.7709 492.24C97.3595 492.021 97.898 491.686 98.3544 491.254L103.024 487.12L103.124 487.02C103.634 487.292 104.161 487.53 104.702 487.734V493.382C104.749 494.592 105.263 495.736 106.135 496.575C107.008 497.414 108.172 497.883 109.382 497.883C110.593 497.883 111.756 497.414 112.629 496.575C113.501 495.736 114.015 494.592 114.062 493.382V487.741C114.391 487.62 114.712 487.491 115.026 487.341L119.603 491.29C120.068 491.692 120.608 491.998 121.191 492.191C121.775 492.384 122.39 492.461 123.003 492.416C123.616 492.371 124.214 492.206 124.764 491.93C125.313 491.654 125.802 491.273 126.204 490.808C126.606 490.343 126.912 489.803 127.105 489.22C127.298 488.636 127.375 488.021 127.33 487.408C127.285 486.795 127.12 486.197 126.844 485.647C126.568 485.098 126.187 484.609 125.722 484.207L121.645 480.694C121.795 480.373 121.923 480.044 122.045 479.716H128.05C129.291 479.714 130.48 479.22 131.357 478.342C132.234 477.463 132.726 476.273 132.726 475.032C132.726 474.418 132.605 473.81 132.37 473.242C132.135 472.675 131.791 472.16 131.357 471.725C130.922 471.291 130.407 470.946 129.839 470.711C129.272 470.476 128.664 470.355 128.05 470.355Z" fill="#FFE18B"/>
<path d="M128.05 470.355H121.988C121.874 470.041 121.745 469.741 121.602 469.442L126.043 465.515C126.927 464.679 127.451 463.534 127.505 462.319C127.559 461.105 127.139 459.917 126.333 459.007C125.528 458.096 124.4 457.535 123.188 457.441C121.976 457.347 120.775 457.728 119.839 458.503L115.169 462.637C115.099 462.705 115.032 462.777 114.969 462.851C114.676 462.716 114.369 462.594 114.062 462.48V456.818C114.015 455.608 113.501 454.464 112.629 453.625C111.756 452.786 110.593 452.317 109.382 452.317C108.172 452.317 107.008 452.786 106.135 453.625C105.263 454.464 104.749 455.608 104.702 456.818V462.48C104.273 462.637 103.852 462.823 103.438 463.023C103.305 462.862 103.162 462.709 103.01 462.566L98.283 458.489C97.8218 458.059 97.2786 457.727 96.6861 457.512C96.0935 457.298 95.4636 457.205 94.8343 457.239C94.2049 457.273 93.589 457.435 93.0234 457.713C92.4578 457.991 91.9541 458.38 91.5426 458.858C91.1311 459.335 90.8201 459.891 90.6284 460.491C90.4367 461.091 90.3681 461.724 90.4268 462.352C90.4854 462.98 90.6702 463.589 90.9699 464.143C91.2697 464.698 91.6782 465.186 92.1711 465.579L96.8907 469.656C96.9318 469.687 96.9747 469.715 97.0192 469.741C96.9335 469.941 96.855 470.148 96.7836 470.355H90.9145C89.6741 470.355 88.4846 470.848 87.6076 471.725C86.7305 472.602 86.2378 473.792 86.2378 475.032C86.2378 476.273 86.7303 477.463 87.6071 478.342C88.484 479.22 89.6735 479.714 90.9145 479.716H96.7264C96.7693 479.845 96.8193 479.98 96.8692 480.109C96.8692 480.109 96.8692 480.109 96.8264 480.109L92.1497 484.243C91.6659 484.643 91.2677 485.137 90.9786 485.695C90.6895 486.252 90.5155 486.862 90.4669 487.488C90.4184 488.114 90.4962 488.744 90.6959 489.339C90.8955 489.935 91.2129 490.484 91.6291 490.955C92.0453 491.425 92.5519 491.807 93.1186 492.077C93.6854 492.348 94.3008 492.502 94.9282 492.53C95.5556 492.558 96.1823 492.459 96.7709 492.24C97.3595 492.021 97.898 491.686 98.3544 491.254L103.024 487.12L103.124 487.02C103.634 487.292 104.161 487.53 104.702 487.734V493.382C104.749 494.592 105.263 495.736 106.135 496.575C107.008 497.414 108.172 497.883 109.382 497.883C110.593 497.883 111.756 497.414 112.629 496.575C113.501 495.736 114.015 494.592 114.062 493.382V487.741C114.391 487.62 114.712 487.491 115.026 487.341L119.603 491.29C120.068 491.692 120.608 491.998 121.191 492.191C121.775 492.384 122.39 492.461 123.003 492.416C123.616 492.371 124.214 492.206 124.764 491.93C125.313 491.654 125.802 491.273 126.204 490.808C126.606 490.343 126.912 489.803 127.105 489.22C127.298 488.636 127.375 488.021 127.33 487.408C127.285 486.795 127.12 486.197 126.844 485.647C126.568 485.098 126.187 484.609 125.722 484.207L121.645 480.694C121.795 480.373 121.923 480.044 122.045 479.716H128.05C129.291 479.714 130.48 479.22 131.357 478.342C132.234 477.463 132.726 476.273 132.726 475.032C132.726 474.418 132.605 473.81 132.37 473.242C132.135 472.675 131.791 472.16 131.357 471.725C130.922 471.291 130.407 470.946 129.839 470.711C129.272 470.476 128.664 470.355 128.05 470.355Z" fill="#FFE18B"/>
<path d="M128.05 470.355H121.988C121.874 470.041 121.745 469.741 121.602 469.442L126.043 465.515C126.927 464.679 127.451 463.534 127.505 462.319C127.559 461.105 127.139 459.917 126.333 459.007C125.528 458.096 124.4 457.535 123.188 457.441C121.976 457.347 120.775 457.728 119.839 458.503L115.169 462.637C115.099 462.705 115.032 462.777 114.969 462.851C114.676 462.716 114.369 462.594 114.062 462.48V456.818C114.015 455.608 113.501 454.464 112.629 453.625C111.756 452.786 110.593 452.317 109.382 452.317C108.172 452.317 107.008 452.786 106.135 453.625C105.263 454.464 104.749 455.608 104.702 456.818V462.48C104.273 462.637 103.852 462.823 103.438 463.023C103.305 462.862 103.162 462.709 103.01 462.566L98.283 458.489C97.8218 458.059 97.2786 457.727 96.6861 457.512C96.0935 457.298 95.4636 457.205 94.8343 457.239C94.2049 457.273 93.589 457.435 93.0234 457.713C92.4578 457.991 91.9541 458.38 91.5426 458.858C91.1311 459.335 90.8201 459.891 90.6284 460.491C90.4367 461.091 90.3681 461.724 90.4268 462.352C90.4854 462.98 90.6702 463.589 90.9699 464.143C91.2697 464.698 91.6782 465.186 92.1711 465.579L96.8907 469.656C96.9318 469.687 96.9747 469.715 97.0192 469.741C96.9335 469.941 96.855 470.148 96.7836 470.355H90.9145C89.6741 470.355 88.4846 470.848 87.6076 471.725C86.7305 472.602 86.2378 473.792 86.2378 475.032C86.2378 476.273 86.7303 477.463 87.6071 478.342C88.484 479.22 89.6735 479.714 90.9145 479.716H96.7264C96.7693 479.845 96.8193 479.98 96.8692 480.109C96.8692 480.109 96.8692 480.109 96.8264 480.109L92.1497 484.243C91.6659 484.643 91.2677 485.137 90.9786 485.695C90.6895 486.252 90.5155 486.862 90.4669 487.488C90.4184 488.114 90.4962 488.744 90.6959 489.339C90.8955 489.935 91.2129 490.484 91.6291 490.955C92.0453 491.425 92.5519 491.807 93.1186 492.077C93.6854 492.348 94.3008 492.502 94.9282 492.53C95.5556 492.558 96.1823 492.459 96.7709 492.24C97.3595 492.021 97.898 491.686 98.3544 491.254L103.024 487.12L103.124 487.02C103.634 487.292 104.161 487.53 104.702 487.734V493.382C104.749 494.592 105.263 495.736 106.135 496.575C107.008 497.414 108.172 497.883 109.382 497.883C110.593 497.883 111.756 497.414 112.629 496.575C113.501 495.736 114.015 494.592 114.062 493.382V487.741C114.391 487.62 114.712 487.491 115.026 487.341L119.603 491.29C120.068 491.692 120.608 491.998 121.191 492.191C121.775 492.384 122.39 492.461 123.003 492.416C123.616 492.371 124.214 492.206 124.764 491.93C125.313 491.654 125.802 491.273 126.204 490.808C126.606 490.343 126.912 489.803 127.105 489.22C127.298 488.636 127.375 488.021 127.33 487.408C127.285 486.795 127.12 486.197 126.844 485.647C126.568 485.098 126.187 484.609 125.722 484.207L121.645 480.694C121.795 480.373 121.923 480.044 122.045 479.716H128.05C129.291 479.714 130.48 479.22 131.357 478.342C132.234 477.463 132.726 476.273 132.726 475.032C132.726 474.418 132.605 473.81 132.37 473.242C132.135 472.675 131.791 472.16 131.357 471.725C130.922 471.291 130.407 470.946 129.839 470.711C129.272 470.476 128.664 470.355 128.05 470.355Z" fill="#FFE18B"/>
<path d="M128.05 470.355H121.988C121.874 470.041 121.745 469.741 121.602 469.442L126.043 465.515C126.927 464.679 127.451 463.534 127.505 462.319C127.559 461.105 127.139 459.917 126.333 459.007C125.528 458.096 124.4 457.535 123.188 457.441C121.976 457.347 120.775 457.728 119.839 458.503L115.169 462.637C115.099 462.705 115.032 462.777 114.969 462.851C114.676 462.716 114.369 462.594 114.062 462.48V456.818C114.015 455.608 113.501 454.464 112.629 453.625C111.756 452.786 110.593 452.317 109.382 452.317C108.172 452.317 107.008 452.786 106.135 453.625C105.263 454.464 104.749 455.608 104.702 456.818V462.48C104.273 462.637 103.852 462.823 103.438 463.023C103.305 462.862 103.162 462.709 103.01 462.566L98.283 458.489C97.8218 458.059 97.2786 457.727 96.6861 457.512C96.0935 457.298 95.4636 457.205 94.8343 457.239C94.2049 457.273 93.589 457.435 93.0234 457.713C92.4578 457.991 91.9541 458.38 91.5426 458.858C91.1311 459.335 90.8201 459.891 90.6284 460.491C90.4367 461.091 90.3681 461.724 90.4268 462.352C90.4854 462.98 90.6702 463.589 90.9699 464.143C91.2697 464.698 91.6782 465.186 92.1711 465.579L96.8907 469.656C96.9318 469.687 96.9747 469.715 97.0192 469.741C96.9335 469.941 96.855 470.148 96.7836 470.355H90.9145C89.6741 470.355 88.4846 470.848 87.6076 471.725C86.7305 472.602 86.2378 473.792 86.2378 475.032C86.2378 476.273 86.7303 477.463 87.6071 478.342C88.484 479.22 89.6735 479.714 90.9145 479.716H96.7264C96.7693 479.845 96.8193 479.98 96.8692 480.109C96.8692 480.109 96.8692 480.109 96.8264 480.109L92.1497 484.243C91.6659 484.643 91.2677 485.137 90.9786 485.695C90.6895 486.252 90.5155 486.862 90.4669 487.488C90.4184 488.114 90.4962 488.744 90.6959 489.339C90.8955 489.935 91.2129 490.484 91.6291 490.955C92.0453 491.425 92.5519 491.807 93.1186 492.077C93.6854 492.348 94.3008 492.502 94.9282 492.53C95.5556 492.558 96.1823 492.459 96.7709 492.24C97.3595 492.021 97.898 491.686 98.3544 491.254L103.024 487.12L103.124 487.02C103.634 487.292 104.161 487.53 104.702 487.734V493.382C104.749 494.592 105.263 495.736 106.135 496.575C107.008 497.414 108.172 497.883 109.382 497.883C110.593 497.883 111.756 497.414 112.629 496.575C113.501 495.736 114.015 494.592 114.062 493.382V487.741C114.391 487.62 114.712 487.491 115.026 487.341L119.603 491.29C120.068 491.692 120.608 491.998 121.191 492.191C121.775 492.384 122.39 492.461 123.003 492.416C123.616 492.371 124.214 492.206 124.764 491.93C125.313 491.654 125.802 491.273 126.204 490.808C126.606 490.343 126.912 489.803 127.105 489.22C127.298 488.636 127.375 488.021 127.33 487.408C127.285 486.795 127.12 486.197 126.844 485.647C126.568 485.098 126.187 484.609 125.722 484.207L121.645 480.694C121.795 480.373 121.923 480.044 122.045 479.716H128.05C129.291 479.714 130.48 479.22 131.357 478.342C132.234 477.463 132.726 476.273 132.726 475.032C132.726 474.418 132.605 473.81 132.37 473.242C132.135 472.675 131.791 472.16 131.357 471.725C130.922 471.291 130.407 470.946 129.839 470.711C129.272 470.476 128.664 470.355 128.05 470.355Z" fill="#FFE18B"/>
<path d="M128.05 470.355H121.988C121.874 470.041 121.745 469.741 121.602 469.442L126.043 465.515C126.927 464.679 127.451 463.534 127.505 462.319C127.559 461.105 127.139 459.917 126.333 459.007C125.528 458.096 124.4 457.535 123.188 457.441C121.976 457.347 120.775 457.728 119.839 458.503L115.169 462.637C115.099 462.705 115.032 462.777 114.969 462.851C114.676 462.716 114.369 462.594 114.062 462.48V456.818C114.015 455.608 113.501 454.464 112.629 453.625C111.756 452.786 110.593 452.317 109.382 452.317C108.172 452.317 107.008 452.786 106.135 453.625C105.263 454.464 104.749 455.608 104.702 456.818V462.48C104.273 462.637 103.852 462.823 103.438 463.023C103.305 462.862 103.162 462.709 103.01 462.566L98.283 458.489C97.8218 458.059 97.2786 457.727 96.6861 457.512C96.0935 457.298 95.4636 457.205 94.8343 457.239C94.2049 457.273 93.589 457.435 93.0234 457.713C92.4578 457.991 91.9541 458.38 91.5426 458.858C91.1311 459.335 90.8201 459.891 90.6284 460.491C90.4367 461.091 90.3681 461.724 90.4268 462.352C90.4854 462.98 90.6702 463.589 90.9699 464.143C91.2697 464.698 91.6782 465.186 92.1711 465.579L96.8907 469.656C96.9318 469.687 96.9747 469.715 97.0192 469.741C96.9335 469.941 96.855 470.148 96.7836 470.355H90.9145C89.6741 470.355 88.4846 470.848 87.6076 471.725C86.7305 472.602 86.2378 473.792 86.2378 475.032C86.2378 476.273 86.7303 477.463 87.6071 478.342C88.484 479.22 89.6735 479.714 90.9145 479.716H96.7264C96.7693 479.845 96.8193 479.98 96.8692 480.109C96.8692 480.109 96.8692 480.109 96.8264 480.109L92.1497 484.243C91.6659 484.643 91.2677 485.137 90.9786 485.695C90.6895 486.252 90.5155 486.862 90.4669 487.488C90.4184 488.114 90.4962 488.744 90.6959 489.339C90.8955 489.935 91.2129 490.484 91.6291 490.955C92.0453 491.425 92.5519 491.807 93.1186 492.077C93.6854 492.348 94.3008 492.502 94.9282 492.53C95.5556 492.558 96.1823 492.459 96.7709 492.24C97.3595 492.021 97.898 491.686 98.3544 491.254L103.024 487.12L103.124 487.02C103.634 487.292 104.161 487.53 104.702 487.734V493.382C104.749 494.592 105.263 495.736 106.135 496.575C107.008 497.414 108.172 497.883 109.382 497.883C110.593 497.883 111.756 497.414 112.629 496.575C113.501 495.736 114.015 494.592 114.062 493.382V487.741C114.391 487.62 114.712 487.491 115.026 487.341L119.603 491.29C120.068 491.692 120.608 491.998 121.191 492.191C121.775 492.384 122.39 492.461 123.003 492.416C123.616 492.371 124.214 492.206 124.764 491.93C125.313 491.654 125.802 491.273 126.204 490.808C126.606 490.343 126.912 489.803 127.105 489.22C127.298 488.636 127.375 488.021 127.33 487.408C127.285 486.795 127.12 486.197 126.844 485.647C126.568 485.098 126.187 484.609 125.722 484.207L121.645 480.694C121.795 480.373 121.923 480.044 122.045 479.716H128.05C129.291 479.714 130.48 479.22 131.357 478.342C132.234 477.463 132.726 476.273 132.726 475.032C132.726 474.418 132.605 473.81 132.37 473.242C132.135 472.675 131.791 472.16 131.357 471.725C130.922 471.291 130.407 470.946 129.839 470.711C129.272 470.476 128.664 470.355 128.05 470.355Z" fill="#FFE18B"/>
<path d="M128.05 470.355H121.988C121.874 470.041 121.745 469.741 121.602 469.442L126.043 465.515C126.927 464.679 127.451 463.534 127.505 462.319C127.559 461.105 127.139 459.917 126.333 459.007C125.528 458.096 124.4 457.535 123.188 457.441C121.976 457.347 120.775 457.728 119.839 458.503L115.169 462.637C115.099 462.705 115.032 462.777 114.969 462.851C114.676 462.716 114.369 462.594 114.062 462.48V456.818C114.015 455.608 113.501 454.464 112.629 453.625C111.756 452.786 110.593 452.317 109.382 452.317C108.172 452.317 107.008 452.786 106.135 453.625C105.263 454.464 104.749 455.608 104.702 456.818V462.48C104.273 462.637 103.852 462.823 103.438 463.023C103.305 462.862 103.162 462.709 103.01 462.566L98.283 458.489C97.8218 458.059 97.2786 457.727 96.6861 457.512C96.0935 457.298 95.4636 457.205 94.8343 457.239C94.2049 457.273 93.589 457.435 93.0234 457.713C92.4578 457.991 91.9541 458.38 91.5426 458.858C91.1311 459.335 90.8201 459.891 90.6284 460.491C90.4367 461.091 90.3681 461.724 90.4268 462.352C90.4854 462.98 90.6702 463.589 90.9699 464.143C91.2697 464.698 91.6782 465.186 92.1711 465.579L96.8907 469.656C96.9318 469.687 96.9747 469.715 97.0192 469.741C96.9335 469.941 96.855 470.148 96.7836 470.355H90.9145C89.6741 470.355 88.4846 470.848 87.6076 471.725C86.7305 472.602 86.2378 473.792 86.2378 475.032C86.2378 476.273 86.7303 477.463 87.6071 478.342C88.484 479.22 89.6735 479.714 90.9145 479.716H96.7264C96.7693 479.845 96.8193 479.98 96.8692 480.109C96.8692 480.109 96.8692 480.109 96.8264 480.109L92.1497 484.243C91.6659 484.643 91.2677 485.137 90.9786 485.695C90.6895 486.252 90.5155 486.862 90.4669 487.488C90.4184 488.114 90.4962 488.744 90.6959 489.339C90.8955 489.935 91.2129 490.484 91.6291 490.955C92.0453 491.425 92.5519 491.807 93.1186 492.077C93.6854 492.348 94.3008 492.502 94.9282 492.53C95.5556 492.558 96.1823 492.459 96.7709 492.24C97.3595 492.021 97.898 491.686 98.3544 491.254L103.024 487.12L103.124 487.02C103.634 487.292 104.161 487.53 104.702 487.734V493.382C104.749 494.592 105.263 495.736 106.135 496.575C107.008 497.414 108.172 497.883 109.382 497.883C110.593 497.883 111.756 497.414 112.629 496.575C113.501 495.736 114.015 494.592 114.062 493.382V487.741C114.391 487.62 114.712 487.491 115.026 487.341L119.603 491.29C120.068 491.692 120.608 491.998 121.191 492.191C121.775 492.384 122.39 492.461 123.003 492.416C123.616 492.371 124.214 492.206 124.764 491.93C125.313 491.654 125.802 491.273 126.204 490.808C126.606 490.343 126.912 489.803 127.105 489.22C127.298 488.636 127.375 488.021 127.33 487.408C127.285 486.795 127.12 486.197 126.844 485.647C126.568 485.098 126.187 484.609 125.722 484.207L121.645 480.694C121.795 480.373 121.923 480.044 122.045 479.716H128.05C129.291 479.714 130.48 479.22 131.357 478.342C132.234 477.463 132.726 476.273 132.726 475.032C132.726 474.418 132.605 473.81 132.37 473.242C132.135 472.675 131.791 472.16 131.357 471.725C130.922 471.291 130.407 470.946 129.839 470.711C129.272 470.476 128.664 470.355 128.05 470.355Z" fill="#FFE18B"/>
<path d="M59.6484 464.037C63.0712 464.037 65.8459 461.262 65.8459 457.839C65.8459 454.416 63.0712 451.642 59.6484 451.642C56.2256 451.642 53.4509 454.416 53.4509 457.839C53.4509 461.262 56.2256 464.037 59.6484 464.037Z" fill="white"/>
<path d="M109.486 481.615C112.908 481.615 115.683 478.841 115.683 475.418C115.683 471.995 112.908 469.22 109.486 469.22C106.063 469.22 103.288 471.995 103.288 475.418C103.288 478.841 106.063 481.615 109.486 481.615Z" fill="white"/>
<path d="M117.625 587.451C115.304 587.451 113.034 586.763 111.104 585.473C109.174 584.183 107.669 582.35 106.781 580.205C105.892 578.06 105.66 575.7 106.113 573.423C106.566 571.146 107.683 569.055 109.325 567.413C110.967 565.772 113.058 564.654 115.335 564.201C117.612 563.748 119.972 563.98 122.117 564.869C124.262 565.757 126.095 567.262 127.385 569.192C128.675 571.122 129.363 573.392 129.363 575.713C129.36 578.825 128.122 581.809 125.921 584.009C123.721 586.21 120.737 587.448 117.625 587.451ZM117.625 566.831C115.868 566.831 114.151 567.352 112.691 568.328C111.23 569.304 110.091 570.691 109.419 572.314C108.747 573.937 108.571 575.723 108.914 577.446C109.256 579.169 110.102 580.752 111.345 581.994C112.587 583.236 114.169 584.082 115.892 584.425C117.615 584.767 119.401 584.592 121.024 583.919C122.647 583.247 124.034 582.109 125.01 580.648C125.986 579.187 126.507 577.47 126.507 575.713C126.502 573.359 125.564 571.103 123.9 569.439C122.235 567.774 119.979 566.837 117.625 566.831Z" fill="#262626"/>
<path d="M99.1326 606.979C97.5242 606.979 95.9518 606.502 94.6145 605.609C93.2771 604.715 92.2347 603.445 91.6192 601.959C91.0037 600.473 90.8426 598.838 91.1564 597.26C91.4702 595.683 92.2448 594.234 93.3821 593.096C94.5194 591.959 95.9685 591.185 97.546 590.871C99.1236 590.557 100.759 590.718 102.245 591.334C103.731 591.949 105.001 592.991 105.895 594.329C106.788 595.666 107.265 597.238 107.265 598.847C107.263 601.003 106.406 603.071 104.881 604.595C103.356 606.12 101.289 606.977 99.1326 606.979ZM99.1326 593.57C98.089 593.57 97.0689 593.88 96.2012 594.46C95.3335 595.039 94.6572 595.864 94.2578 596.828C93.8584 597.792 93.7539 598.853 93.9575 599.876C94.1611 600.9 94.6637 601.84 95.4016 602.578C96.1395 603.316 97.0797 603.818 98.1032 604.022C99.1268 604.226 100.188 604.121 101.152 603.722C102.116 603.322 102.94 602.646 103.52 601.778C104.1 600.911 104.409 599.891 104.409 598.847C104.407 597.448 103.851 596.107 102.862 595.118C101.872 594.129 100.531 593.572 99.1326 593.57Z" fill="#262626"/>
</svg>
